HIERARCHY
ROOT pelvis
{
  OFFSET 0 100 0
  CHANNELS 6 Xposition Yposition Zposition Zrotation Xrotation Yrotation
  JOINT pelvis_right_femur
  {
    OFFSET -10.78128 -3.44521 -0.5502486
    CHANNELS 3 Zrotation Xrotation Yrotation
    JOINT right_femur_tibia
    {
      OFFSET -0.8047443 -44.0398 -0.1307829
      CHANNELS 3 Zrotation Xrotation Yrotation
      JOINT right_tibia_foot
      {
        OFFSET 3.006224 -47.83518 -5
        CHANNELS 3 Zrotation Xrotation Yrotation
        End Site
        {
          OFFSET 0 -5 15
        }
      }
    }
  }
  JOINT pelvis_left_femur
  {
    OFFSET 10.78128 -3.44521 -0.5502486
    CHANNELS 3 Zrotation Xrotation Yrotation
    JOINT left_femur_tibia
    {
      OFFSET 0.8047443 -44.0398 -0.1307829
      CHANNELS 3 Zrotation Xrotation Yrotation
      JOINT left_tibia_foot
      {
        OFFSET -4.370144 -48.10324 -4.275266
        CHANNELS 3 Zrotation Xrotation Yrotation
        End Site
        {
          OFFSET 0 -5 15
        }
      }
    }
  }
  JOINT pelvis_spine1
  {
    OFFSET 0 6.468898 -3.129235
    CHANNELS 3 Zrotation Xrotation Yrotation
    JOINT spine1
    {
      OFFSET 0 23.15396 4.99043
      CHANNELS 3 Zrotation Xrotation Yrotation
      JOINT spine2
      {
        OFFSET 0 20.79997 -5.064912
        CHANNELS 3 Zrotation Xrotation Yrotation
        JOINT neck
        {
          OFFSET 0 14.38658 9.616178
          CHANNELS 3 Zrotation Xrotation Yrotation
          End Site
          {
            OFFSET 0 20 0
          }
        }
      }
      JOINT right_manubrium
      {
        OFFSET -5.722621 16.35077 3.967754
        CHANNELS 3 Zrotation Xrotation Yrotation
        JOINT right_clavicle
        {
          OFFSET -13.16364 1.694482 -4.693211
          CHANNELS 3 Zrotation Xrotation Yrotation
          JOINT right_humerus
          {
            OFFSET -28.5034 -0.3100689 -2.792744
            CHANNELS 3 Zrotation Xrotation Yrotation
            JOINT right_radius
            {
              OFFSET -25.15693 0.02248979 -1.271978
              CHANNELS 3 Zrotation Xrotation Yrotation
              End Site
              {
                OFFSET -15 0 0
              }
            }
          }
        }
      }
      JOINT left_manubrium
      {
        OFFSET 5.722621 16.35077 3.967754
        CHANNELS 3 Zrotation Xrotation Yrotation
        JOINT left_clavicle
        {
          OFFSET 13.16364 1.694482 -4.693211
          CHANNELS 3 Zrotation Xrotation Yrotation
          JOINT left_humerus
          {
            OFFSET 29.39168 -1.063119 -2.237045
            CHANNELS 3 Zrotation Xrotation Yrotation
            JOINT left_radius
            {
              OFFSET 24.59957 -0.9528479 0.9047498
              CHANNELS 3 Zrotation Xrotation Yrotation
              End Site
              {
                OFFSET 15 -0 -0
              }
            }
          }
        }
      }
    }
  }
}
MOTION
Frames: 11
Frame Time: 0.0416666666667
1032.685 39.53388 484.4262 -9.131774 6.867556 -127.9657 0.9144509 -7.788764 2.233378 -0 42.14928 -0 7.245129 -16.45266 -7.855376 -3.868254 9.720951 -12.39989 -0 27.98001 -0 -12.07467 -12.94594 14.7493 -0.8755037 1.768844 1.998088 -2.288368 4.506225 -2.019456 4.572868 26.58682 7.129062 -0.4640819 -9.712872 14.34548 1.746139 -8.92872 7.822126 87.27766 29.61924 -11.63357 -0 0 11.5096 -26.74002 25.14566 9.549592 5.902916 -13.95902 -2.749163 -83.90572 26.00647 5.115764 0 0 -15.2992 0.7937181 16.95869 10.70967
1027.839 39.66209 480.4999 -9.210795 6.760789 -127.2997 0.9144509 -7.788764 2.233378 -0 42.14928 -0 7.245129 -16.45266 -7.855376 -3.868254 9.720951 -12.39989 -0 27.98001 -0 -12.07467 -12.94594 14.7493 -0.8755037 1.768844 1.998088 -2.288368 4.506225 -2.019456 4.572868 26.58682 7.129062 -0.4640819 -9.712872 14.34548 1.746139 -8.92872 7.822126 87.27766 29.61924 -11.63357 -0 0 11.5096 -26.74002 25.14566 9.549592 5.902916 -13.95902 -2.749163 -83.90572 26.00647 5.115764 0 0 -15.2992 0.7937181 16.95869 10.70967
1022.947 39.7903 476.6305 -9.288545 6.653116 -126.634 0.9144509 -7.788764 2.233378 -0 42.14928 -0 7.245129 -16.45266 -7.855376 -3.868254 9.720951 -12.39989 -0 27.98001 -0 -12.07467 -12.94594 14.7493 -0.8755037 1.768844 1.998088 -2.288368 4.506225 -2.019456 4.572868 26.58682 7.129062 -0.4640819 -9.712872 14.34548 1.746139 -8.92872 7.822126 87.27766 29.61924 -11.63357 -0 0 11.5096 -26.74002 25.14566 9.549592 5.902916 -13.95902 -2.749163 -83.90572 26.00647 5.115764 0 0 -15.2992 0.7937181 16.95869 10.70967
1018.01 39.91851 472.8186 -9.365013 6.544554 -125.9686 0.9144509 -7.788764 2.233378 -0 42.14928 -0 7.245129 -16.45266 -7.855376 -3.868254 9.720951 -12.39989 -0 27.98001 -0 -12.07467 -12.94594 14.7493 -0.8755037 1.768844 1.998088 -2.288368 4.506225 -2.019456 4.572868 26.58682 7.129062 -0.4640819 -9.712872 14.34548 1.746139 -8.92872 7.822126 87.27766 29.61924 -11.63357 -0 0 11.5096 -26.74002 25.14566 9.549592 5.902916 -13.95902 -2.749163 -83.90572 26.00647 5.115764 0 0 -15.2992 0.7937181 16.95869 10.70967
1013.029 40.04672 469.0647 -9.44019 6.435117 -125.3035 0.9144509 -7.788764 2.233378 -0 42.14928 -0 7.245129 -16.45266 -7.855376 -3.868254 9.720951 -12.39989 -0 27.98001 -0 -12.07467 -12.94594 14.7493 -0.8755037 1.768844 1.998088 -2.288368 4.506225 -2.019456 4.572868 26.58682 7.129062 -0.4640819 -9.712872 14.34548 1.746139 -8.92872 7.822126 87.27766 29.61924 -11.63357 -0 0 11.5096 -26.74002 25.14566 9.549592 5.902916 -13.95902 -2.749163 -83.90572 26.00647 5.115764 0 0 -15.2992 0.7937181 16.95869 10.70967
1008.005 40.17493 465.3692 -9.514069 6.324821 -124.6387 0.9144509 -7.788764 2.233378 -0 42.14928 -0 7.245129 -16.45266 -7.855376 -3.868254 9.720951 -12.39989 -0 27.98001 -0 -12.07467 -12.94594 14.7493 -0.8755037 1.768844 1.998088 -2.288368 4.506225 -2.019456 4.572868 26.58682 7.129062 -0.4640819 -9.712872 14.34548 1.746139 -8.92872 7.822126 87.27766 29.61924 -11.63357 -0 0 11.5096 -26.74002 25.14566 9.549592 5.902916 -13.95902 -2.749163 -83.90572 26.00647 5.115764 0 0 -15.2992 0.7937181 16.95869 10.70967
1002.937 40.30315 461.7328 -9.586639 6.213681 -123.9741 0.9144509 -7.788764 2.233378 -0 42.14928 -0 7.245129 -16.45266 -7.855376 -3.868254 9.720951 -12.39989 -0 27.98001 -0 -12.07467 -12.94594 14.7493 -0.8755037 1.768844 1.998088 -2.288368 4.506225 -2.019456 4.572868 26.58682 7.129062 -0.4640819 -9.712872 14.34548 1.746139 -8.92872 7.822126 87.27766 29.61924 -11.63357 -0 0 11.5096 -26.74002 25.14566 9.549592 5.902916 -13.95902 -2.749163 -83.90572 26.00647 5.115764 0 0 -15.2992 0.7937181 16.95869 10.70967
997.8277 40.43136 458.1558 -9.657893 6.101711 -123.3099 0.9144509 -7.788764 2.233378 -0 42.14928 -0 7.245129 -16.45266 -7.855376 -3.868254 9.720951 -12.39989 -0 27.98001 -0 -12.07467 -12.94594 14.7493 -0.8755037 1.768844 1.998088 -2.288368 4.506225 -2.019456 4.572868 26.58682 7.129062 -0.4640819 -9.712872 14.34548 1.746139 -8.92872 7.822126 87.27766 29.61924 -11.63357 -0 0 11.5096 -26.74002 25.14566 9.549592 5.902916 -13.95902 -2.749163 -83.90572 26.00647 5.115764 0 0 -15.2992 0.7937181 16.95869 10.70967
992.6767 40.55957 454.6388 -9.727822 5.988928 -122.6459 0.9144509 -7.788764 2.233378 -0 42.14928 -0 7.245129 -16.45266 -7.855376 -3.868254 9.720951 -12.39989 -0 27.98001 -0 -12.07467 -12.94594 14.7493 -0.8755037 1.768844 1.998088 -2.288368 4.506225 -2.019456 4.572868 26.58682 7.129062 -0.4640819 -9.712872 14.34548 1.746139 -8.92872 7.822126 87.27766 29.61924 -11.63357 -0 0 11.5096 -26.74002 25.14566 9.549592 5.902916 -13.95902 -2.749163 -83.90572 26.00647 5.115764 0 0 -15.2992 0.7937181 16.95869 10.70967
987.4848 40.68778 451.1823 -9.796417 5.875347 -121.9821 0.9144509 -7.788764 2.233378 -0 42.14928 -0 7.245129 -16.45266 -7.855376 -3.868254 9.720951 -12.39989 -0 27.98001 -0 -12.07467 -12.94594 14.7493 -0.8755037 1.768844 1.998088 -2.288368 4.506225 -2.019456 4.572868 26.58682 7.129062 -0.4640819 -9.712872 14.34548 1.746139 -8.92872 7.822126 87.27766 29.61924 -11.63357 -0 0 11.5096 -26.74002 25.14566 9.549592 5.902916 -13.95902 -2.749163 -83.90572 26.00647 5.115764 0 0 -15.2992 0.7937181 16.95869 10.70967
982.2529 40.81599 447.7867 -9.863673 5.760983 -121.3187 0.9144509 -7.788764 2.233378 -0 42.14928 -0 7.245129 -16.45266 -7.855376 -3.868254 9.720951 -12.39989 -0 27.98001 -0 -12.07467 -12.94594 14.7493 -0.8755037 1.768844 1.998088 -2.288368 4.506225 -2.019456 4.572868 26.58682 7.129062 -0.4640819 -9.712872 14.34548 1.746139 -8.92872 7.822126 87.27766 29.61924 -11.63357 -0 0 11.5096 -26.74002 25.14566 9.549592 5.902916 -13.95902 -2.749163 -83.90572 26.00647 5.115764 0 0 -15.2992 0.7937181 16.95869 10.70967
